<?xml version="1.0" encoding="UTF-8" standalone="no"?>
<svg
   xmlns:dc="http://purl.org/dc/elements/1.1/"
   xmlns:cc="http://creativecommons.org/ns#"
   xmlns:rdf="http://www.w3.org/1999/02/22-rdf-syntax-ns#"
   xmlns:svg="http://www.w3.org/2000/svg"
   xmlns="http://www.w3.org/2000/svg"
   xmlns:sodipodi="http://sodipodi.sourceforge.net/DTD/sodipodi-0.dtd"
   xmlns:inkscape="http://www.inkscape.org/namespaces/inkscape"
   version="1.1"
   width="261.74951"
   height="110.29066"
   viewBox="-0.5 -0.5 261.74951 110.29066"
   overflow="visible"
   enable-background="new -0.5 -0.5 263 390"
   xml:space="preserve"
   id="svg2"
   inkscape:version="0.91 r13725"
   sodipodi:docname="WWF_logo.svg"
   style="overflow:visible"><metadata
     id="metadata13"><rdf:RDF><cc:Work
         rdf:about=""><dc:format>image/svg+xml</dc:format><dc:type
           rdf:resource="http://purl.org/dc/dcmitype/StillImage" /><dc:title></dc:title></cc:Work></rdf:RDF></metadata><defs
     id="defs11" /><sodipodi:namedview
     pagecolor="#ffffff"
     bordercolor="#666666"
     borderopacity="1"
     objecttolerance="10"
     gridtolerance="10"
     guidetolerance="10"
     inkscape:pageopacity="0"
     inkscape:pageshadow="2"
     inkscape:window-width="1258"
     inkscape:window-height="714"
     id="namedview9"
     showgrid="false"
     fit-margin-top="5"
     fit-margin-left="5"
     fit-margin-right="5"
     fit-margin-bottom="5"
     inkscape:zoom="0.60512821"
     inkscape:cx="130.74652"
     inkscape:cy="199.15565"
     inkscape:window-x="0"
     inkscape:window-y="0"
     inkscape:window-maximized="0"
     inkscape:current-layer="svg2" /><path
     id="Rmark"
     d="m 243.81852,4.5000006 c -3.098,0.001 -6.01,1.209 -8.2,3.4 -2.19,2.1910004 -3.396,5.1050004 -3.394,8.2030004 0.002,6.405 5.209,11.605 11.604,11.602 3.098,0 6.01,-1.209 8.2,-3.4 2.188,-2.191 3.395,-5.104 3.393,-8.203 l 0,-0.009 c -10e-4,-3.099 -1.209,-6.011 -3.401,-8.2000004 -2.191,-2.19 -5.104,-3.394 -8.202,-3.393 z m -5.365,16.9850004 c -1.436,-1.436 -2.229,-3.343 -2.229,-5.373 -0.002,-4.199 3.404,-7.6090004 7.595,-7.6110004 2.03,-0.002 3.938,0.789 5.374,2.2230004 1.436,1.434 2.227,3.342 2.228,5.372 l 0,0.009 c 0.001,2.03 -0.788,3.938 -2.223,5.374 -1.435,1.437 -3.343,2.228 -5.372,2.228 -2.03,0 -3.937,-0.788 -5.373,-2.222 z m 1.393,-0.298 0,-10.167 4.32,0 c 1.086,0 1.876,0.092 2.368,0.274 0.491,0.183 0.887,0.507 1.183,0.975 0.297,0.468 0.444,1.001 0.444,1.603 0,0.763 -0.226,1.393 -0.673,1.89 -0.448,0.497 -1.119,0.812 -2.012,0.94 0.444,0.259 0.811,0.543 1.1,0.853 0.289,0.31 0.679,0.86 1.169,1.649 l 1.241,1.983 -2.455,0 -1.484,-2.212 c -0.527,-0.791 -0.888,-1.289 -1.082,-1.494 -0.193,-0.207 -0.4,-0.348 -0.617,-0.424 -0.217,-0.076 -0.562,-0.113 -1.033,-0.113 l -0.416,0 0,4.243 -2.053,0 0,0 z m 2.05,-5.866 1.52,0 c 0.984,0 1.6,-0.043 1.846,-0.125 0.244,-0.084 0.437,-0.227 0.575,-0.431 0.14,-0.204 0.208,-0.458 0.208,-0.763 0,-0.342 -0.091,-0.619 -0.273,-0.829 -0.184,-0.21 -0.44,-0.343 -0.773,-0.397 -0.167,-0.023 -0.666,-0.035 -1.498,-0.035 l -1.602,0 0,2.58 -0.003,0 z"
     inkscape:connector-curvature="0"
     style="fill:#6d6d6d" /><path
     id="WWF"
     d="m 9.4085219,34.797001 0,0 13.2080001,0 c 0,0 3.422,-0.62 4.77,2.852 1.587,4.092 8.123,30.316 8.123,30.316 l 9.363,-13.855 c 0,0 -3.819,-19.404 2.876,-19.313 8.071,0.108 12.566,0 12.566,0 0,0 3.216,-0.308 5.228,5.054 2.369,6.314 8.135,28.541 8.135,28.541 l 13.327,-30.375 c 0,0 1.834,-3.219 4.77,-3.219 3.118,0 5.092,2.186 4.402,4.688 -1.05,3.81 -23.113,61.817999 -23.113,61.817999 0,0 -1.468,3.484 -4.586,3.484 -3.119,0 -4.403,-1.834 -6.054,-6.052999 -1.651,-4.219 -12.107,-32.469 -12.107,-32.469 l -15.776,35.770999 c 0,0 -1.192,2.75 -3.669,2.75 -2.935,0 -4.036,-1.283 -5.503,-4.035 -1.468,-2.750999 -19.9950001,-55.765999 -19.9950001,-55.765999 0,0 -3.67,-10.189 4.035,-10.189 z m 97.5429981,0 0,0 13.208,0 c 0,0 3.422,-0.62 4.77,2.852 1.587,4.092 8.124,30.316 8.124,30.316 l 9.361,-13.855 c 0,0 -3.818,-19.404 2.876,-19.313 8.07,0.108 12.565,0 12.565,0 0,0 3.217,-0.308 5.228,5.054 2.37,6.314 8.136,28.541 8.136,28.541 l 13.326,-30.375 c 0,0 1.834,-3.219 4.77,-3.219 3.119,0 5.093,2.186 4.402,4.688 -1.049,3.81 -23.113,61.817999 -23.113,61.817999 0,0 -1.467,3.484 -4.586,3.484 -3.119,0 -4.401,-1.834 -6.054,-6.052999 -1.651,-4.219 -12.106,-32.469 -12.106,-32.469 l -15.776,35.770999 c 0,0 -1.192,2.75 -3.669,2.75 -2.935,0 -4.036,-1.283 -5.503,-4.035 -1.468,-2.750999 -19.995,-55.765999 -19.995,-55.765999 0,0 -3.668998,-10.189 4.036,-10.189 z m 97.617,69.989999 c 0,0 -4.54,0.385 -4.54,-6.749999 0,-7.133 0,-58.889 0,-58.889 0,0 0,-4.41 6.485,-4.41 6.485,0 44.361,0 44.361,0 0,0 5.375,-0.26 5.375,4.93 0,5.19 -4.986,4.67 -4.986,4.67 l -26.461,0 c 0,0 -3.113,0 -3.113,2.982 0,2.983 0,14.527 0,14.527 l 20.365,0 c 0,0 5.504,0 5.504,4.281 0,4.279 -4.597,4.54 -4.597,4.54 l -21.401,0 0,28.317 c 0,0 0.315,5.802999 -3.445,5.802999 -2.596,-10e-4 -13.547,-0.135 -13.547,-10e-4 z"
     inkscape:connector-curvature="0" /></svg>